#N canvas 270 231 638 691 10;
#X obj 336 311 Scope~ 130 130 256 3 128 -1 1 0 0 0 0 102 255 51 135
135 135 0;
#X obj 308 525 dac~;
#X obj 370 453 hsl 128 15 0 0.5 0 0 empty empty empty -2 -8 0 10 -262144
-1 -1 6900 1;
#X obj 59 300 Scope~ 130 130 256 3 128 -1 1 0 0 0 0 102 255 51 135
135 135 0;
#X obj 279 49 sig~;
#X obj 282 -37 hsl 128 15 1 0.05 1 0 empty empty empty -2 -8 0 10 -262144
-1 -1 1900 1;
#X obj 214 140 pong~ 0 1 1;
#X obj 279 12 line 0 1;
#X text 336 11 smoothing;
#X obj 245 104 *~ -1;
#X msg 279 -12 \$1 20;
#X obj 166 243 balance.mmb~;
#X obj 308 486 *~ 0.1;
#X text 250 242 RMS based makeup gain;
#N canvas 0 22 450 300 sig2ctl 0;
#X obj 227 108 metro 10;
#X obj 227 132 snapshot~;
#X obj 227 82 tgl 15 0 empty empty empty 17 7 0 10 -262144 -1 -1 1
1;
#X obj 227 60 loadbang;
#X obj 227 165 outlet;
#X obj 171 59 inlet~;
#X connect 0 0 1 0;
#X connect 1 0 4 0;
#X connect 2 0 0 0;
#X connect 3 0 2 0;
#X connect 5 0 1 0;
#X restore 301 140 pd sig2ctl;
#X floatatom 301 164 5 0 0 0 - - -;
#N canvas 0 22 450 300 sig2ctl 0;
#X obj 227 108 metro 10;
#X obj 227 132 snapshot~;
#X obj 227 82 tgl 15 0 empty empty empty 17 7 0 10 -262144 -1 -1 1
1;
#X obj 227 60 loadbang;
#X obj 227 165 outlet;
#X obj 171 59 inlet~;
#X connect 0 0 1 0;
#X connect 1 0 4 0;
#X connect 2 0 0 0;
#X connect 3 0 2 0;
#X connect 5 0 1 0;
#X restore 100 137 pd sig2ctl;
#X floatatom 100 161 5 0 0 0 - - -;
#X text 416 -37 fold amount;
#X obj 284 -74 hsl 128 15 0 1 0 0 empty empty empty -2 -8 0 10 -262144
-1 -1 5000 1;
#X obj 133 -2 *~;
#X obj 133 -35 sig~ 0.2;
#X text 420 -77 dc offset;
#X text 264 210 remove dc offset;
#X obj 60 41 osc~ 200;
#X obj 213 210 hip~ 5;
#X connect 2 0 12 1;
#X connect 4 0 9 0;
#X connect 4 0 6 2;
#X connect 4 0 14 0;
#X connect 5 0 10 0;
#X connect 6 0 25 0;
#X connect 7 0 4 0;
#X connect 9 0 6 1;
#X connect 9 0 16 0;
#X connect 10 0 7 0;
#X connect 11 0 12 0;
#X connect 12 0 1 0;
#X connect 12 0 1 1;
#X connect 14 0 15 0;
#X connect 16 0 17 0;
#X connect 19 0 20 1;
#X connect 20 0 6 0;
#X connect 21 0 20 0;
#X connect 24 0 3 0;
#X connect 24 0 6 0;
#X connect 24 0 11 1;
#X connect 25 0 11 0;
